# xmcd
#
# Track frame offsets: 
#        150
#        17576
#        39940
#        57829
#        70450
#        90831
#        106962
#        126825
#        143719
#        159026
#        170449
#        180092
#        192925
#        207974
#
# Disc length: 2857 seconds
#
# Revision: 1
# Processed by: cddbd v1.5.2PL0 Copyright (c) Steve Scherf et al.
# Submitted via: ExactAudioCopy v1.0b4
#
DISCID=a80b270e
DTITLE=Ефрем Амирамов - Алёнка
DYEAR=2002
DGENRE=Chanson
TTITLE0=Алёнка
TTITLE1=Новая Мурочка
TTITLE2=Любимая моя
TTITLE3=Будем жить
TTITLE4=Поход
TTITLE5=Жена
TTITLE6=Ты прости
TTITLE7=Тебя не убьют
TTITLE8=Сирень
TTITLE9=Март
TTITLE10=Саксофон
TTITLE11=К тебе
TTITLE12=Бессмертие любви
TTITLE13=Надым
EXTD=
EXTT0=
EXTT1=
EXTT2=
EXTT3=
EXTT4=
EXTT5=
EXTT6=
EXTT7=
EXTT8=
EXTT9=
EXTT10=
EXTT11=
EXTT12=
EXTT13=
PLAYORDER=
